<?xml version="1.0" encoding="utf-8"?>
<!-- Generator: Adobe Illustrator 22.1.0, SVG Export Plug-In . SVG Version: 6.00 Build 0)  -->
<svg version="1.1" id="Capa_1" xmlns="http://www.w3.org/2000/svg" xmlns:xlink="http://www.w3.org/1999/xlink" x="0px" y="0px"
	 viewBox="0 0 500 500" style="enable-background:new 0 0 500 500;" xml:space="preserve">
<style type="text/css">
	.st0{fill:#00E55B;}
	.st1{fill:url(#SVGID_1_);}
</style>
<g>
	<g>
		<path d="M35.1,498.3l31.3-84.7h15.4l31.5,84.7h-9.7l-8.1-21.7H52.7l-7.9,21.7H35.1z M55.8,468.3h36.7l-16.9-45.7h-3L55.8,468.3z"
			/>
		<path d="M133.4,498.3v-84.7h14.5l45.9,75.6v-75.6h9.3v84.7h-14.5l-45.9-75.8v75.8H133.4z"/>
		<path d="M229.8,441.6c0-10.8,2.2-18.4,6.7-22.6c4.5-4.3,12.4-6.4,23.8-6.4h10.7c11.5,0,19.5,2.1,23.9,6.3
			c4.4,4.2,6.6,11.8,6.6,22.7v28.7c0,10.9-2.2,18.4-6.7,22.7c-4.5,4.3-12.4,6.4-23.8,6.4h-10.7c-11.4,0-19.4-2.1-23.8-6.4
			c-4.5-4.2-6.7-11.8-6.7-22.7V441.6z M268.3,421.4h-5.2c-6,0-10.2,0.3-12.6,1c-2.5,0.6-4.6,1.7-6.4,3.2c-1.7,1.4-2.8,3.4-3.5,5.8
			c-0.7,2.4-1,6.6-1,12.6v24c0,5.9,0.3,10.1,1,12.5c0.7,2.4,1.9,4.3,3.5,5.8c1.8,1.5,3.9,2.6,6.4,3.2c2.5,0.6,6.7,1,12.6,1h5.2
			c6,0,10.2-0.3,12.7-1c2.5-0.6,4.6-1.7,6.4-3.2c1.6-1.4,2.8-3.3,3.4-5.6c0.7-2.4,1-6.6,1-12.6v-24.1c0-6-0.3-10.2-1-12.6
			c-0.7-2.4-1.9-4.4-3.5-5.8c-1.7-1.5-3.9-2.5-6.3-3.2C278.5,421.7,274.3,421.4,268.3,421.4z"/>
		<path d="M328.1,498.3v-84.7h9.2v75.9h48v8.9H328.1z"/>
		<path d="M406.4,498.3v-84.7h59.4v9h-50.1v27.7h48.7v8.7h-48.7v30.5h50.1v8.9H406.4z"/>
	</g>
	<g>
		<path class="st0" d="M395.6,99.2c-18.3-42.8-50.5-75.1-95.5-89.8c-21.5-7-46.5-9.7-70.8-6.1c-30,4.5-62.4,20-81.6,39
			c-65.7,64.8-47.9,133.1-47.9,133.1c-3.5-60.7,36.7-137.6,123.1-148c36.1-4.3,79,5.8,104.7,31.7c25.3,25.7,34.6,66,23.2,97.3
			c-14.8,41-41.8,54.6-66.4,62.6c-20.4,6.9-93.2,6.3-97.2-52.9c-1.4-20.9,7.6-37.1,24.7-48.5c43-28.8,83-32.2,117.2-31.7
			c0,0,0.9-3.5-1.2-7.1c-2.1-3.6-7.1-3.9-7.1-3.9l-13.7-2L250.8,65c-31.3-5-50.4,14-50.4,14c-82.9,19.5-89.2,94-89.2,94.3
			c-7.6,75,52.8,128.8,124.9,136.5c57.4,6.1,116.5-21.1,145.6-69.3C416.5,189.6,407.9,127.9,395.6,99.2z"/>
		<linearGradient id="SVGID_1_" gradientUnits="userSpaceOnUse" x1="169.8022" y1="174.7097" x2="391.3315" y2="54.9108">
			<stop  offset="1.500000e-02" style="stop-color:#FF0000"/>
			<stop  offset="1.644352e-02" style="stop-color:#FF0101"/>
			<stop  offset="8.596107e-02" style="stop-color:#F1311E"/>
			<stop  offset="0.159" style="stop-color:#E55C38"/>
			<stop  offset="0.238" style="stop-color:#DA824F"/>
			<stop  offset="0.322" style="stop-color:#D1A263"/>
			<stop  offset="0.4124" style="stop-color:#CABC73"/>
			<stop  offset="0.5118" style="stop-color:#C4D07F"/>
			<stop  offset="0.6249" style="stop-color:#C0DE87"/>
			<stop  offset="0.7633" style="stop-color:#BEE78C"/>
			<stop  offset="1" style="stop-color:#BDE98E"/>
		</linearGradient>
		<path class="st1" d="M197.2,167.6c0.5,4.8,2.3,12.6,4.9,18.4c1-10.6,12.5-12.5,12.5-12.5c35.2-7.6,39.9-38.4,39.9-38.4
			c4.8-20.6,25.3-23.7,25.3-23.7l42.4-10.2c10.5-3.2,5.8-11.7,5.8-11.7l-6.1,0c-18.1,0.1-62.4,3.4-103.7,31.3
			C203.6,130.6,195.3,150.6,197.2,167.6z"/>
	</g>
</g>
</svg>
